<?xml version="1.0" encoding="utf-8"?>
<!-- Generator: Adobe Illustrator 16.0.0, SVG Export Plug-In . SVG Version: 6.00 Build 0)  -->
<!DOCTYPE svg PUBLIC "-//W3C//DTD SVG 1.1//EN" "http://www.w3.org/Graphics/SVG/1.1/DTD/svg11.dtd">
<svg version="1.1" id="Layer_1" xmlns="http://www.w3.org/2000/svg" xmlns:xlink="http://www.w3.org/1999/xlink" x="0px" y="0px"
	 width="198.425px" height="198.425px" viewBox="0 0 198.425 198.425" enable-background="new 0 0 198.425 198.425"
	 xml:space="preserve">
<path fill="#333333" d="M165.515,120.256l-9.185,12.654l22.544,16.18c2.616,1.893,4.212,4.416,4.787,7.57s-0.074,6.012-1.967,8.646
	c-1.985,2.598-4.527,4.156-7.626,4.676s-5.956-0.186-8.554-2.041l-73.031-52.139c-4.731,4.861-9.89,8.795-15.475,11.838
	c-5.566,3.043-11.226,5.121-16.959,6.234c-5.715,1.113-11.355,1.188-16.866,0.186s-10.595-3.191-15.196-6.531
	c-5.214-3.674-9.24-8.461-12.098-14.315c-2.857-5.845-4.453-12.153-4.824-18.907c-0.371-6.772,0.557-13.768,2.746-20.967
	c2.171-7.236,5.604-14.139,10.279-20.744c4.713-6.605,10.168-12.061,16.31-16.365c6.16-4.305,12.487-7.403,19.019-9.277
	c6.513-1.893,12.97-2.412,19.371-1.596c6.383,0.816,12.209,3.08,17.404,6.772c4.62,3.21,8.294,7.273,11.021,12.19
	c2.728,4.898,4.527,10.261,5.362,16.05c0.854,5.789,0.724,11.819-0.353,18.091c-1.113,6.271-3.154,12.45-6.197,18.518l37.666,27.025
	l9.166-12.664l-9.537-6.717c-0.854-0.612-1.373-1.447-1.559-2.505c-0.167-1.058,0.037-2.06,0.649-2.95l4.639-6.271
	c0.612-0.854,1.41-1.392,2.412-1.596c1.002-0.223,1.985,0,2.95,0.668l31.283,22.46c0.983,0.631,1.54,1.447,1.688,2.523
	c0.167,1.039-0.074,2.041-0.687,2.932l-4.453,6.309c-0.594,0.854-1.447,1.373-2.486,1.596c-1.076,0.186-2.06,0-2.969-0.594
	L165.515,120.256z M88.383,77.237c1.651-2.227,2.728-4.639,3.284-7.181c0.538-2.542,0.594-5.103,0.186-7.645
	c-0.445-2.542-1.336-4.936-2.69-7.181c-1.373-2.245-3.173-4.156-5.418-5.733c-2.245-1.633-4.639-2.728-7.181-3.284
	c-2.561-0.538-5.084-0.594-7.645-0.167c-2.542,0.427-4.936,1.317-7.181,2.69c-2.245,1.354-4.156,3.154-5.733,5.399
	c-2.245,3.21-3.414,6.698-3.544,10.409c-0.13,3.748,0.649,7.199,2.356,10.428c-3.562-0.612-7.106-0.223-10.595,1.132
	s-6.401,3.655-8.776,6.865c-1.633,2.245-2.728,4.639-3.266,7.181c-0.557,2.561-0.594,5.065-0.148,7.552
	c0.464,2.486,1.373,4.843,2.746,7.106c1.354,2.227,3.117,4.156,5.307,5.715c2.245,1.633,4.639,2.746,7.199,3.284
	c2.523,0.547,5.047,0.622,7.533,0.167c2.486-0.408,4.861-1.299,7.088-2.672c2.264-1.373,4.193-3.154,5.826-5.418
	c2.375-3.21,3.6-6.68,3.748-10.409c0.111-3.729-0.705-7.199-2.468-10.409c3.581,0.594,7.106,0.26,10.595-1.039
	C83.095,82.71,86.027,80.465,88.383,77.237z"/>
</svg>
